<?xml version="1.0" encoding="UTF-8"?>
<!DOCTYPE svg PUBLIC "-//W3C//DTD SVG 1.1//EN" "http://www.w3.org/Graphics/SVG/1.1/DTD/svg11.dtd">
<!-- Creator: CorelDRAW 2018 (64-Bit) -->
<svg xmlns="http://www.w3.org/2000/svg" xml:space="preserve" width="118.24mm" height="35.136mm" version="1.1" style="shape-rendering:geometricPrecision; text-rendering:geometricPrecision; image-rendering:optimizeQuality; fill-rule:evenodd; clip-rule:evenodd"
viewBox="0 0 11824 3513.6"
 xmlns:xlink="http://www.w3.org/1999/xlink">
 <defs>
  <style type="text/css">
   <![CDATA[
    .str0 {stroke:#FEFEFE;stroke-width:20;stroke-miterlimit:22.9256}
    .fil1 {fill:#FEFEFE}
    .fil0 {fill:#2B2A29}
    .fil2 {fill:#EF7F1A}
    .fil3 {fill:#2B2A29;fill-rule:nonzero}
    .fil4 {fill:#EF7F1A;fill-rule:nonzero}
   ]]>
  </style>
   <mask id="id0">
  <linearGradient id="id1" gradientUnits="userSpaceOnUse" x1="11538.38" y1="4469.61" x2="14886.56" y2="3372.55">
   <stop offset="0" style="stop-opacity:1; stop-color:white"/>
   <stop offset="0.968627" style="stop-opacity:-34.6392; stop-color:white"/>
   <stop offset="1" style="stop-opacity:0; stop-color:white"/>
  </linearGradient>
    <rect style="fill:url(#id1)" x="-10" y="1921.1" width="11664.25" height="1469.12"/>
   </mask>
 </defs>
 <g id="Layer_x0020_1">
  <metadata id="CorelCorpID_0Corel-Layer"/>
  <path class="fil0" d="M6769.86 3117.99c-74.63,14.79 -72.07,0.19 -72.59,55.2 -0.21,22.79 -5.02,42.65 16.55,48.11 42.75,10.82 49.54,-3.08 61.84,25.82 6.3,14.8 2.34,12.61 -20.57,44.08 -21.47,29.46 -14.82,28.6 12.35,55.76 39,38.96 23.66,33.55 86.09,-5.68 11.05,-6.96 31.57,8.39 31.95,9.13 3.42,17.14 5.19,36.26 8.97,53.21 4.91,22.12 24.19,17.29 46.78,17.41 23.5,0.12 42.32,5.13 47.37,-16.66 3.9,-16.89 6.78,-38.91 9.46,-56.2 33.2,-9.85 12.85,-18.3 61.03,15.64 7.52,5.3 19.73,16.28 32.77,8.19l46.83 -47.43c7.51,-16.39 -16.97,-38.91 -30.9,-59.99 -5.44,-8.22 0.02,-19.25 7.26,-31.3 75.2,-15.51 72.14,6.39 72.39,-75.52 0.09,-30.88 -13.3,-27.57 -41.03,-31.97 -7.95,-1.27 -25.39,-2.57 -30.58,-6.81 -3.9,-3.2 -10.48,-20.92 -9.29,-25.71 1.2,-4.78 25.65,-36.37 30.46,-43.73 13.51,-20.63 -11.61,-36.76 -21.11,-46.64 -9.87,-10.26 -24.23,-34.2 -45.79,-20.29 -13.57,8.77 -31.85,25.22 -45.73,31.27 -33.39,-16.21 -21.35,2.15 -31.22,-52.47 -6.72,-37.17 -13.26,-30.43 -51.92,-30.66 -40.63,-0.23 -40.62,-2.88 -47.52,35.09 -0.95,5.18 -5.7,32.74 -7.02,34.98 -3.9,6.54 -23.43,12.59 -28.52,10.37 -5.93,-2.62 -40.61,-32.03 -49.15,-34.16 -16.55,-4.16 -39.8,25.69 -48,33.45 -33.16,31.37 -9.89,32.01 15.59,75.9 5.99,10.29 -2.83,19.46 -6.75,31.61zm35.71 -97.15l-16.78 16.22c6.81,12.87 17.28,25.7 24.5,36.53 13.38,20.09 5.06,23.56 -3.66,42.44 -19.51,42.3 4.05,33.28 -74.49,45.84l0.24 24.46c11.06,4.45 36.32,6.55 49.63,9.93 18.64,4.72 15.31,17.96 23.76,37.19 9.21,20.87 17.94,23.01 2.61,43.97 -6.97,9.52 -20.3,26.61 -24.99,35.89 5.99,6.24 9.18,11.33 17,16.16 9.82,-4.68 27.71,-17.89 36.07,-23.97 20.93,-15.24 23.12,-5.82 43.19,2.97 15.36,6.74 32.81,6.44 37.22,21.6 4.56,15.69 6.02,35.97 9.14,52.28l25.01 0.8c13.15,-78.51 4.97,-57.07 46.24,-74.34 46.21,-19.35 17.86,-13.27 78.81,22.17 8.28,-3.98 10.72,-9.49 17.32,-15.06 -3.75,-10.1 -16.57,-25.24 -23.78,-35.63 -14.42,-20.74 -10,-20.8 0.88,-42.64 20.5,-41.19 -7.8,-34.83 74.66,-48.12l1.6 -25.14c-77.68,-10.08 -58.5,-9.79 -74.55,-46.44 -18.71,-42.7 -13.5,-19.97 21.89,-78.22l-15.71 -17.35c-9.58,3.23 -25.6,16.83 -35.22,23.83 -20.48,14.88 -21.2,7.94 -41.8,-1.75 -37.73,-17.78 -38.49,3.85 -47.63,-75.45l-22.06 -0.31c-10.42,8.09 -8.58,36.86 -12.36,49.89 -5.59,19.18 -20.16,15.68 -37.49,23.79 -18.9,8.85 -23.88,17.73 -43.45,3.12 -8.73,-6.55 -27.21,-21.15 -35.8,-24.66zm116.13 64.11c-45.02,10.45 -85.56,54.48 -72.42,112.42 10.07,44.48 54.28,83.74 112.16,72.09 42.6,-8.57 85.82,-54.69 72.51,-112.5 -10.4,-45.17 -54.43,-85.43 -112.25,-72.01zm4.81 37.54c-74.75,23.61 -39.38,127.48 29.52,109.2 25.35,-6.72 50.79,-34.47 40.32,-70.16 -7.47,-25.47 -35,-50.05 -69.84,-39.04z"/>
  <rect class="fil1 str0" x="6969.44" y="2913.78" width="218.02" height="517.8"/>
  <path class="fil2" style="mask:url(#id0)" d="M-0 3316.65c3234.09,-2931.59 9782.87,-68.18 11251.31,-1351.34 141.08,-51.15 307.3,-43.84 392.94,14.63 -1420.59,1438.96 -8274.16,-1512.07 -11289.09,1383 -161.24,31.61 -284.64,21.9 -355.16,-46.29z"/>
  <path class="fil2" d="M-0 3316.65c3234.09,-2931.59 9782.87,-68.18 11251.31,-1351.34 141.08,-51.15 307.3,-43.84 392.94,14.63 -1420.59,1438.96 -8274.16,-1512.07 -11289.09,1383 -161.24,31.61 -284.64,21.9 -355.16,-46.29z"/>
  <path class="fil2" d="M6572.29 837.55c148.51,0 276.97,203.3 276.97,454.09 0,250.78 -128.46,454.09 -276.97,454.09 -148.5,0 -276.96,-203.31 -276.96,-454.09 0,-250.79 128.46,-454.09 276.96,-454.09zm6.21 -114.85c334.37,0 597.36,263.89 597.36,589.42 0,325.53 -262.99,589.41 -597.36,589.41 -334.38,0 -597.37,-263.88 -597.37,-589.41 0,-325.53 262.99,-589.42 597.37,-589.42z"/>
  <path class="fil2" d="M5597.07 766.43c226.71,109.56 274.54,398.5 53.88,516.66 -20.94,12.62 -68.43,39.31 -68.43,39.31l289.09 544.45 -322.37 0 -302.19 -618.37c176.29,0 239.21,-17.07 271.97,-185.03 0,-187.46 -128.44,-204.49 -319.81,-204.49l0 1007.89 -272.03 0 0 -1129.67c191.43,0 496.16,-31.6 669.89,29.25z"/>
  <polygon class="fil2" points="4619.97,737.18 4619.97,858.96 4428.54,858.96 4428.54,1866.85 4108.73,1866.85 4108.73,858.96 3899.67,858.96 3899.67,737.18 "/>
  <path class="fil2" d="M3355.69 858.96c-319.86,31.61 -304.73,567.2 -224.13,776.6 45.35,114.42 128.4,133.9 241.79,138.76 158.64,9.77 256.86,-138.76 302.18,-248.3l130.97 77.88c-143.54,216.7 -289.62,309.18 -594.37,279.99 -334.95,-63.29 -465.92,-357.87 -430.63,-635.41 12.61,-389.52 428.12,-688.98 815.98,-482.05 80.55,41.39 143.53,141.22 191.38,233.71l-125.9 46.27c-65.48,-92.52 -161.22,-187.45 -307.27,-187.45z"/>
  <path class="fil2" d="M2506.99 1353.14l-397.92 0c0,63.31 -32.75,343.28 30.21,389.52l17.64 0 496.11 0 0 121.72 -657.28 0c-110.82,-29.19 -143.58,-60.86 -158.65,-184.99 0,-279.97 -17.65,-572.11 15.07,-822.89 0,-92.51 110.82,-121.73 161.19,-121.73l591.84 0 -15.13 121.73 -465.92 0 -15.08 17.04 0 0 0 326.26 397.92 0 0 153.34z"/>
  <path class="fil2" d="M1643.16 1866.85c-113.33,0 -481.03,63.31 -481.03,-121.74l0 -34.06 0 -1701.76 271.97 0 0 1735.82c65.48,0 161.22,0 209.06,0l0 121.74z"/>
  <path class="fil2" d="M764.21 1202.2l0 153.38 -385.3 0c0,63.33 -30.22,343.29 32.71,389.53l32.77 0 430.63 0 0 121.74 -609.44 0c-95.7,-29.22 -158.66,-75.49 -158.66,-185.05l0 -727.91c0,-124.19 62.96,-202.08 193.89,-216.71l544 0 0 121.78 -448.26 0 -17.64 17.03 0 0 0 326.21 385.3 0z"/>
  <path class="fil2" d="M11206.08 953.89l-113.31 418.73 271.97 0 -125.93 -450.39 -32.73 31.66zm-221.62 903.23l-161.17 0 269.48 -1027.42c17.63,-109.55 146.04,-109.55 241.77,-109.55 143.54,17.03 158.66,124.18 191.37,233.74l279.56 903.23 -284.59 0 -123.38 -331.1 -334.98 0 -78.06 331.1z"/>
  <polygon class="fil2" points="10672.18,737.18 10672.18,858.96 10432.92,858.96 10432.92,1866.85 10160.94,1866.85 10160.94,858.96 9936.81,858.96 9936.81,737.18 "/>
  <path class="fil2" d="M8516.27 475.98c-32.12,151.11 -264.57,288.46 -359.86,325.81 0,0 331.8,177.51 375.19,213.99 293.52,226.37 211.82,695.43 -145.46,821.87 -181.26,60.79 -405.81,60.79 -620.23,46.19l0 -117.67c66.37,0 114.85,7.17 181.22,8.25 257.75,0 372.65,-109.43 405.8,-354.98 0,-216.45 -148.05,-325.85 -293.51,-464.45 -160.78,-170.22 -37.85,-230.4 96.99,-357.43 369.89,-386.37 -366.08,-613.79 -421.1,-277.23l0 1556.46 -293.51 0c-3.61,-525.23 -41.31,-1053.64 0,-1602.64 92.44,-448.69 1145.55,-322.17 1074.47,201.83z"/>
  <path class="fil2" d="M9248.37 1201.47l415.56 0 0 153.39 -415.56 0c0,63.32 -30.2,343.29 32.71,389.52l15.13 0 481.04 0 0 121.74 -639.7 0c-113.32,-29.21 -143.53,-75.48 -161.16,-185.05l0 -727.9c17.63,-153.4 30.2,-202.09 176.3,-216.72l609.43 0 -32.71 121.78 -463.41 0 -2.67 17.48c-17.64,107.1 -14.96,216.22 -14.96,325.76z"/>
  <path class="fil3" d="M7285.56 3324.79l39.55 -23.77c27.88,51.42 60.07,77.14 96.59,77.14 15.67,0 30.36,-3.67 44.08,-10.91 13.72,-7.24 24.21,-17.07 31.34,-29.28 7.24,-12.21 10.81,-25.18 10.81,-38.9 0,-15.56 -5.3,-30.79 -15.89,-45.81 -14.59,-20.64 -41.17,-45.6 -79.95,-74.66 -38.9,-29.39 -63.1,-50.57 -72.61,-63.64 -16.53,-21.94 -24.74,-45.71 -24.74,-71.21 0,-20.2 4.86,-38.67 14.58,-55.32 9.72,-16.63 23.45,-29.71 41.17,-39.32 17.72,-9.62 36.84,-14.37 57.58,-14.37 22.05,0 42.69,5.39 61.81,16.31 19.12,10.8 39.44,30.79 60.83,59.86l-38.04 28.84c-17.61,-23.22 -32.63,-38.56 -45.04,-45.91 -12.43,-7.46 -25.94,-11.13 -40.52,-11.13 -18.91,0 -34.36,5.72 -46.36,17.07 -11.99,11.45 -18.04,25.39 -18.04,42.14 0,10.04 2.16,19.87 6.37,29.39 4.22,9.5 12,19.77 23.23,31.01 6.05,5.83 26.26,21.39 60.4,46.46 40.41,29.82 68.18,56.29 83.2,79.41 15.01,23.23 22.58,46.57 22.58,70.02 0,33.71 -12.85,63.1 -38.47,87.95 -25.71,24.95 -56.93,37.38 -93.67,37.38 -28.31,0 -54.03,-7.56 -77.04,-22.69 -23.01,-15.13 -44.3,-40.52 -63.75,-76.06zm371.47 -378.38l266.45 0 0 45.37 -219.77 0 0 145.87 217.82 0 0 45.38 -217.82 0 0 183.46 217.82 0 0 45.38 -264.5 0 0 -465.46zm349.53 0l92.92 0c51.75,0 86.87,2.15 105.24,6.37 27.77,6.26 50.24,19.78 67.52,40.63 17.41,20.74 26.04,46.34 26.04,76.71 0,25.28 -5.94,47.53 -17.93,66.66 -11.89,19.23 -28.96,33.71 -51.21,43.55 -22.15,9.83 -52.84,14.8 -91.95,15.01l167.58 216.53 -57.16 0 -167.58 -216.53 -26.8 0 0 216.53 -46.67 0 0 -465.46zm46.67 45.37l0 158.19 80.39 0.65c31.23,0 54.24,-2.93 69.15,-8.87 14.91,-5.94 26.58,-15.34 35.01,-28.3 8.32,-12.97 12.53,-27.45 12.53,-43.55 0,-15.55 -4.21,-29.82 -12.74,-42.57 -8.43,-12.75 -19.56,-21.82 -33.39,-27.34 -13.73,-5.5 -36.63,-8.21 -68.61,-8.21l-82.34 0zm309.24 -45.37l50.68 0 154.5 360.33 157.1 -360.33 50.68 0 -202.91 465.46 -10.38 0 -199.67 -465.46zm483.73 0l46.67 0 0 465.46 -46.67 0 0 -465.46zm105.01 378.38l39.55 -23.77c27.88,51.42 60.07,77.14 96.59,77.14 15.67,0 30.36,-3.67 44.08,-10.91 13.72,-7.24 24.21,-17.07 31.34,-29.28 7.24,-12.21 10.8,-25.18 10.8,-38.9 0,-15.56 -5.29,-30.79 -15.88,-45.81 -14.59,-20.64 -41.17,-45.6 -79.95,-74.66 -38.9,-29.39 -63.1,-50.57 -72.61,-63.64 -16.53,-21.94 -24.74,-45.71 -24.74,-71.21 0,-20.2 4.86,-38.67 14.58,-55.32 9.72,-16.63 23.45,-29.71 41.17,-39.32 17.72,-9.62 36.84,-14.37 57.58,-14.37 22.04,0 42.69,5.39 61.81,16.31 19.12,10.8 39.44,30.79 60.83,59.86l-38.04 28.84c-17.61,-23.22 -32.63,-38.56 -45.05,-45.91 -12.42,-7.46 -25.93,-11.13 -40.51,-11.13 -18.91,0 -34.36,5.72 -46.36,17.07 -12,11.45 -18.04,25.39 -18.04,42.14 0,10.04 2.15,19.87 6.37,29.39 4.21,9.5 12,19.77 23.23,31.01 6.05,5.83 26.26,21.39 60.4,46.46 40.41,29.82 68.18,56.29 83.19,79.41 15.02,23.23 22.59,46.57 22.59,70.02 0,33.71 -12.86,63.1 -38.47,87.95 -25.72,24.95 -56.94,37.38 -93.67,37.38 -28.32,0 -54.03,-7.56 -77.04,-22.69 -23.01,-15.13 -44.3,-40.52 -63.75,-76.06zm550.29 -378.38l92.81 0c53.16,0 89.14,2.26 107.73,6.91 26.57,6.59 48.3,19.98 65.15,40.41 16.96,20.31 25.39,45.91 25.39,76.71 0,31.01 -8.22,56.51 -24.74,76.71 -16.43,20.1 -39.12,33.6 -67.97,40.63 -21.17,5.08 -60.61,7.56 -118.42,7.56l-33.28 0 0 216.53 -46.67 0 0 -465.46zm46.67 45.37l0 158.19 78.88 0.96c31.87,0 55.21,-2.91 70.01,-8.74 14.81,-5.84 26.48,-15.13 34.91,-28.1 8.42,-12.96 12.63,-27.55 12.63,-43.54 0,-15.56 -4.21,-29.93 -12.63,-42.89 -8.43,-12.97 -19.67,-22.15 -33.5,-27.67 -13.83,-5.5 -36.42,-8.21 -67.96,-8.21l-82.34 0zm558.93 -57.04c70.45,0 129.44,23.55 176.87,70.55 47.43,47 71.21,104.91 71.21,173.63 0,68.17 -23.67,125.99 -70.99,173.42 -47.43,47.43 -105.14,71.2 -173.31,71.2 -68.94,0 -127.17,-23.66 -174.6,-70.88 -47.43,-47.21 -71.21,-104.37 -71.21,-171.47 0,-44.73 10.81,-86.11 32.41,-124.36 21.62,-38.14 51.12,-68.07 88.5,-89.68 37.28,-21.61 77.69,-32.41 121.12,-32.41zm2.05 45.38c-34.35,0 -66.99,8.96 -97.89,26.9 -30.79,17.93 -54.88,42.03 -72.28,72.39 -17.29,30.47 -25.94,64.28 -25.94,101.67 0,55.21 19.13,101.89 57.49,139.93 38.35,38.13 84.6,57.15 138.62,57.15 36.2,0 69.59,-8.76 100.27,-26.26 30.79,-17.5 54.78,-41.49 71.96,-71.84 17.18,-30.37 25.82,-64.08 25.82,-101.25 0,-36.95 -8.64,-70.33 -25.82,-100.16 -17.18,-29.82 -41.49,-53.7 -72.72,-71.63 -31.22,-17.94 -64.39,-26.9 -99.51,-26.9zm342.08 -33.71l92.92 0c51.75,0 86.87,2.15 105.24,6.37 27.77,6.26 50.24,19.78 67.52,40.63 17.41,20.74 26.04,46.34 26.04,76.71 0,25.28 -5.94,47.53 -17.93,66.66 -11.89,19.23 -28.96,33.71 -51.21,43.55 -22.15,9.83 -52.84,14.8 -91.95,15.01l167.58 216.53 -57.16 0 -167.58 -216.53 -26.8 0 0 216.53 -46.67 0 0 -465.46zm46.67 45.37l0 158.19 80.4 0.65c31.22,0 54.23,-2.93 69.14,-8.87 14.91,-5.94 26.58,-15.34 35.01,-28.3 8.32,-12.97 12.53,-27.45 12.53,-43.55 0,-15.55 -4.21,-29.82 -12.74,-42.57 -8.43,-12.75 -19.56,-21.82 -33.39,-27.34 -13.73,-5.5 -36.63,-8.21 -68.61,-8.21l-82.34 0zm298.22 0l0 -45.37 254.77 0 0 45.37 -103.73 0 0 420.09 -47.32 0 0 -420.09 -103.72 0zm512.67 -45.37l217.18 465.46 -50.03 0 -72.71 -153 -201.73 0 -72.28 153 -51.86 0 219.76 -465.46 11.67 0zm-5.83 97.67l-80.06 169.42 159.8 0 -79.74 -169.42zm294.76 -97.67l46.67 0 0 420.08 179.58 0 0 45.38 -226.25 0 0 -465.46z"/>
  <polygon class="fil4" points="7116.04,2844.67 7162.71,2844.67 7162.71,3513.61 7116.04,3513.61 "/>
 </g>
</svg>
